<svg width="119" height="29" viewBox="0 0 119 29" fill="none" xmlns="http://www.w3.org/2000/svg">
<path d="M39.9598 25.3982L40.5492 24.0722C41.2858 24.6615 42.4563 25.079 43.5777 25.079C45.0101 25.079 45.6158 24.5633 45.6158 23.8839C45.6158 21.9031 40.1563 23.2046 40.1563 19.7913C40.1563 18.3098 41.3349 17.0493 43.856 17.0493C44.961 17.0493 46.1151 17.3358 46.9172 17.8596L46.377 19.1856C45.5503 18.7027 44.6417 18.4653 43.8396 18.4653C42.4236 18.4653 41.8424 19.0138 41.8424 19.7095C41.8424 21.6657 47.2937 20.3889 47.2937 23.7693C47.2937 25.2427 46.0987 26.5032 43.5777 26.5032C42.1535 26.5032 40.7211 26.053 39.9598 25.3982Z" fill="white"/>
<path d="M54.3574 25.9875C53.9646 26.2986 53.3752 26.4623 52.7859 26.4623C51.2471 26.4623 50.3713 25.6519 50.3713 24.0967V20.7245H49.2172V19.4148H50.3713V17.8105H52.0083V19.4148H53.8909V20.7245H52.0083V24.0558C52.0083 24.7352 52.3521 25.1035 52.9823 25.1035C53.3261 25.1035 53.6535 25.0135 53.8991 24.817L54.3574 25.9875Z" fill="white"/>
<path d="M61.3804 19.2842V20.8475C61.2331 20.823 61.1185 20.8066 60.9957 20.8066C59.7515 20.8066 58.9576 21.5433 58.9576 22.9757V26.3725H57.3206V19.3578H58.8839V20.381C59.3587 19.6443 60.2099 19.2842 61.3804 19.2842Z" fill="white"/>
<path d="M69.9093 22.2635V26.3724H68.3623V25.5212C67.9694 26.1269 67.2082 26.4624 66.1605 26.4624C64.5562 26.4624 63.5494 25.5866 63.5494 24.3589C63.5494 23.1884 64.3352 22.2716 66.4634 22.2716H68.2723V22.1652C68.2723 21.2076 67.6911 20.6428 66.5288 20.6428C65.7431 20.6428 64.9245 20.9047 64.4007 21.3385L63.7541 20.1435C64.4989 19.5624 65.5957 19.2759 66.7171 19.2759C68.7388 19.2841 69.9093 20.2417 69.9093 22.2635ZM68.2723 24.1788V23.3685H66.5779C65.4648 23.3685 65.1619 23.7859 65.1619 24.3016C65.1619 24.8909 65.6612 25.2756 66.5043 25.2756C67.2982 25.2674 67.994 24.8991 68.2723 24.1788Z" fill="white"/>
<path d="M77.5379 25.9875C77.145 26.2986 76.5556 26.4623 75.9663 26.4623C74.4275 26.4623 73.5517 25.6519 73.5517 24.0967V20.7245H72.3894V19.4148H73.5435V17.8105H75.1805V19.4148H77.0549V20.7245H75.1805V24.0558C75.1805 24.7352 75.5243 25.1035 76.1546 25.1035C76.4984 25.1035 76.8258 25.0135 77.0713 24.817L77.5379 25.9875Z" fill="white"/>
<path d="M86.828 23.3931H81.3276C81.524 24.4163 82.3753 25.0711 83.5949 25.0711C84.3807 25.0711 85.0027 24.8255 85.502 24.3099L86.3778 25.3166C85.7476 26.0615 84.7654 26.4626 83.554 26.4626C81.2048 26.4626 79.6824 24.9565 79.6824 22.8693C79.6824 20.7821 81.2212 19.2842 83.3084 19.2842C85.3547 19.2842 86.8526 20.7166 86.8526 22.9102C86.8526 23.033 86.8362 23.2294 86.828 23.3931ZM81.3112 22.2963H85.2892C85.1582 21.2895 84.3807 20.5938 83.3084 20.5938C82.2443 20.5938 81.4667 21.2732 81.3112 22.2963Z" fill="white"/>
<path d="M96.3964 19.3577V25.3002C96.3964 27.8457 95.0704 28.9998 92.6149 28.9998C91.3053 28.9998 90.0038 28.6561 89.2017 28.0013L89.9383 26.7653C90.5522 27.281 91.5508 27.6084 92.5248 27.6084C94.0718 27.6084 94.7594 26.8963 94.7594 25.4802V25.1119C94.1783 25.7421 93.3515 26.045 92.4103 26.045C90.4049 26.045 88.8661 24.6781 88.8661 22.6482C88.8661 20.6101 90.4049 19.2759 92.4103 19.2759C93.3925 19.2759 94.2601 19.5869 94.8413 20.2827V19.3577H96.3964ZM94.7839 22.6563C94.7839 21.4777 93.8918 20.6755 92.6558 20.6755C91.4117 20.6755 90.5195 21.4777 90.5195 22.6563C90.5195 23.8514 91.4117 24.6617 92.6558 24.6617C93.8918 24.6617 94.7839 23.8514 94.7839 22.6563Z" fill="white"/>
<path d="M106.636 19.3576L103.354 26.9288C102.707 28.5167 101.815 28.9997 100.653 28.9997C99.957 28.9997 99.2203 28.7623 98.7783 28.353L99.4331 27.1416C99.7442 27.4445 100.194 27.6246 100.645 27.6246C101.226 27.6246 101.561 27.3463 101.88 26.6505L101.995 26.3722L98.9338 19.333H100.636L102.838 24.5142L105.056 19.333H106.636V19.3576Z" fill="white"/>
<path d="M65.6531 2.71729V14.2256H62.9766L57.9018 8.09493V14.2256H54.7096V2.71729H57.3861L62.4609 8.84797V2.71729H65.6531Z" fill="white"/>
<path d="M68.1823 8.46333C68.1823 4.96008 70.8588 2.47998 74.5094 2.47998C76.6293 2.47998 78.34 3.24938 79.4532 4.64905L77.3824 6.52345C76.6621 5.65582 75.7699 5.1729 74.6731 5.1729C72.7823 5.1729 71.4645 6.49071 71.4645 8.46333C71.4645 10.4359 72.7823 11.7538 74.6731 11.7538C75.7781 11.7538 76.6621 11.279 77.3824 10.4032L79.4532 12.2776C78.3318 13.6773 76.6293 14.4467 74.5094 14.4467C70.8588 14.4467 68.1823 11.9666 68.1823 8.46333Z" fill="white"/>
<path d="M80.8856 8.46333C80.8856 5.00919 83.5949 2.47998 87.2782 2.47998C90.9615 2.47998 93.6708 5.00919 93.6708 8.46333C93.6708 11.9175 90.9615 14.4467 87.2782 14.4467C83.5949 14.4467 80.8856 11.9175 80.8856 8.46333ZM90.3886 8.46333C90.3886 6.47434 89.0217 5.1729 87.2864 5.1729C85.543 5.1729 84.176 6.47434 84.176 8.46333C84.176 10.4523 85.543 11.7538 87.2864 11.7538C89.0217 11.7538 90.3886 10.4523 90.3886 8.46333Z" fill="white"/>
<path d="M101.234 11.1644H99.4578V14.2174H96.2083V2.71729H101.471C104.614 2.71729 106.579 4.34613 106.579 6.97357C106.579 8.66789 105.76 9.91204 104.328 10.6078L106.808 14.2256H103.321L101.234 11.1644ZM101.267 5.27924H99.4578V8.65152H101.267C102.617 8.65152 103.288 8.02945 103.288 6.97357C103.288 5.90131 102.617 5.27924 101.267 5.27924Z" fill="white"/>
<path d="M118.423 11.7046V14.2174H109.19V2.71729H118.21V5.23013H112.415V7.17001H117.522V9.601H112.415V11.7046H118.423V11.7046Z" fill="white"/>
<path d="M47.8668 2.71729H44.6582L39.5834 14.2174L43.3731 13.0551L46.2379 5.90131L49.5774 14.2174H52.9579L47.8668 2.71729Z" fill="white"/>
<path d="M0 26.3727L26.8227 0.00830078L33.641 13.17L0 26.3727Z" fill="#00FFB9"/>
<path d="M0 26.3644L14.0785 0L18.3757 8.30793L0 26.3644Z" fill="#01EAAA"/>
<path d="M18.3757 8.30811L0 26.3646L21.0031 13.3911L18.3757 8.30811Z" fill="#01D69B"/>
<path d="M0 26.3728L24.9156 20.9624L27.7149 26.3728H0Z" fill="#01EAAA"/>
</svg>
