<svg width="180" height="65" viewBox="0 0 180 65" fill="none" xmlns="http://www.w3.org/2000/svg">
<path d="M54.0328 37.5791V25.9123H58.9296C59.4554 25.9123 59.9375 26.0218 60.3756 26.2409C60.8138 26.46 61.1973 26.7503 61.5259 27.1118C61.8545 27.4733 62.1065 27.8787 62.2818 28.3278C62.4571 28.7769 62.5447 29.237 62.5447 29.7081C62.5447 30.3544 62.3968 30.9734 62.101 31.5649C61.8162 32.1455 61.4054 32.6166 60.8686 32.9781C60.3428 33.3396 59.7293 33.5204 59.0282 33.5204H55.8732V37.5791H54.0328ZM55.8732 31.8936H58.9132C59.2637 31.8936 59.5705 31.8005 59.8334 31.6142C60.0963 31.417 60.299 31.1541 60.4414 30.8255C60.5947 30.4968 60.6714 30.1244 60.6714 29.7081C60.6714 29.2809 60.5838 28.9029 60.4085 28.5743C60.2332 28.2456 60.0032 27.9937 59.7184 27.8184C59.4445 27.6322 59.1432 27.5391 58.8146 27.5391H55.8732V31.8936ZM67.8859 37.5791V25.9123H69.7263V37.5791H67.8859ZM76.7176 25.9123L79.9383 30.4968L83.159 25.9123H85.1965L80.9899 31.8278L85.0651 37.5791H83.0275L79.9383 33.1589L76.849 37.5791H74.795L78.8702 31.8278L74.6635 25.9123H76.7176ZM98.1225 35.9523V37.5791H90.12V25.9123H97.9746V27.5391H91.9604V30.8584H97.1694V32.3865H91.9604V35.9523H98.1225ZM103.636 37.5791V25.9123H105.477V35.9523H111.737V37.5791H103.636ZM128.79 37.6613C128.023 37.6613 127.306 37.5024 126.638 37.1847C125.969 36.867 125.383 36.4289 124.879 35.8702C124.386 35.3115 123.997 34.6761 123.713 33.964C123.439 33.252 123.302 32.4961 123.302 31.6964C123.302 30.8967 123.439 30.1463 123.713 29.4452C123.997 28.7441 124.386 28.1197 124.879 27.5719C125.383 27.0242 125.969 26.5969 126.638 26.2902C127.317 25.9835 128.056 25.8301 128.856 25.8301C129.962 25.8301 130.893 26.0656 131.649 26.5367C132.416 26.9968 132.991 27.6103 133.375 28.3771L131.962 29.3959C131.655 28.7605 131.217 28.284 130.647 27.9663C130.088 27.6486 129.475 27.4898 128.807 27.4898C128.259 27.4898 127.76 27.6048 127.311 27.8348C126.862 28.0649 126.473 28.3826 126.145 28.7879C125.827 29.1823 125.586 29.6369 125.422 30.1518C125.257 30.6557 125.175 31.187 125.175 31.7457C125.175 32.3372 125.268 32.8905 125.454 33.4053C125.641 33.9202 125.904 34.3748 126.243 34.7692C126.583 35.1526 126.983 35.4539 127.443 35.673C127.903 35.8921 128.401 36.0016 128.938 36.0016C129.573 36.0016 130.176 35.8428 130.746 35.5251C131.326 35.1964 131.868 34.709 132.372 34.0626V35.9359C131.354 37.0861 130.159 37.6613 128.79 37.6613ZM132.192 33.0438H129.743V31.68H133.736V37.5791H132.192V33.0438ZM144.298 37.6613C143.454 37.6613 142.693 37.4969 142.014 37.1683C141.335 36.8397 140.749 36.396 140.256 35.8373C139.763 35.2676 139.379 34.6323 139.105 33.9312C138.843 33.2191 138.711 32.4906 138.711 31.7457C138.711 30.9679 138.853 30.2285 139.138 29.5273C139.423 28.8153 139.817 28.1854 140.321 27.6376C140.825 27.079 141.417 26.6408 142.096 26.3231C142.786 25.9944 143.531 25.8301 144.331 25.8301C145.163 25.8301 145.919 25.9999 146.598 26.3395C147.289 26.6791 147.875 27.1337 148.357 27.7034C148.85 28.273 149.228 28.9084 149.491 29.6095C149.764 30.3106 149.901 31.0281 149.901 31.7621C149.901 32.5399 149.759 33.2848 149.474 33.9969C149.2 34.698 148.811 35.3279 148.307 35.8866C147.804 36.4343 147.206 36.867 146.516 37.1847C145.837 37.5024 145.098 37.6613 144.298 37.6613ZM140.584 31.7457C140.584 32.2934 140.672 32.8247 140.847 33.3396C141.023 33.8545 141.269 34.3146 141.587 34.7199C141.915 35.1143 142.31 35.4265 142.77 35.6565C143.23 35.8866 143.745 36.0016 144.314 36.0016C144.906 36.0016 145.432 35.8811 145.892 35.6401C146.352 35.3991 146.735 35.0759 147.042 34.6706C147.36 34.2543 147.601 33.7942 147.765 33.2903C147.929 32.7754 148.012 32.2606 148.012 31.7457C148.012 31.1979 147.924 30.6721 147.749 30.1682C147.584 29.6533 147.338 29.1987 147.009 28.8043C146.681 28.399 146.286 28.0813 145.826 27.8513C145.377 27.6212 144.873 27.5062 144.314 27.5062C143.723 27.5062 143.197 27.6267 142.737 27.8677C142.277 28.1087 141.888 28.4319 141.57 28.8372C141.253 29.2425 141.006 29.6971 140.831 30.2011C140.666 30.705 140.584 31.2199 140.584 31.7457ZM178.687 27.5391H174.809V37.5791H172.952V27.5391H169.057V25.9123H178.687V27.5391Z" fill="#333333"/>
<path d="M158.79 25.9123H160.532L165.067 37.5791H163.128L161.896 34.4077H157.394L156.178 37.5791H154.222L158.79 25.9123ZM161.535 33.0438L159.661 27.9334L157.722 33.0438H161.535Z" fill="#EE4540"/>
<path d="M31.552 20.5977C31.7373 21.3885 31.8621 22.1955 31.9588 23.0024C32.0071 23.4059 32.0434 23.8135 32.0675 24.221C32.0957 24.6285 32.1118 25.036 32.1159 25.4436C32.1279 26.2626 32.0917 27.0817 31.9829 27.9048C31.9306 28.3164 31.8541 28.7239 31.7534 29.1314L31.6728 29.4341C31.6406 29.5349 31.6084 29.6358 31.5762 29.7326L31.552 29.8093L31.5238 29.8819L31.4674 30.0312C31.4473 30.0796 31.4312 30.1281 31.407 30.1805L31.3426 30.3258L31.2781 30.471C31.258 30.5195 31.2298 30.5679 31.2016 30.6123L31.1251 30.7535L31.0526 30.8866C31.0042 30.9714 30.9559 31.0521 30.9116 31.1408C30.8673 31.2256 30.823 31.3143 30.7827 31.3991C30.6136 31.7501 30.4806 32.1173 30.3719 32.4965C30.1504 33.2551 30.0296 34.0581 29.9127 34.857C29.7959 35.6599 29.6751 36.4669 29.4455 37.2537C29.216 38.0405 28.8938 38.8112 28.4507 39.5092C28.346 39.6867 28.2211 39.8562 28.1043 40.0257C28.0439 40.1104 27.9795 40.1911 27.915 40.2718L27.8184 40.3969L27.7177 40.5139L27.5163 40.7519L27.3028 40.9779L27.1941 41.0909C27.1579 41.1272 27.1216 41.1635 27.0854 41.1998L26.8719 41.4177C26.2959 41.9906 25.6958 42.5434 25.0836 43.076C24.4714 43.6127 23.8431 44.1291 23.2108 44.6335L22.2683 45.384C22.1112 45.5091 21.9582 45.6341 21.8092 45.7592C21.6601 45.8843 21.5152 46.0134 21.3702 46.1425C21.2292 46.2717 21.0963 46.4048 20.9714 46.546C20.8466 46.6832 20.7338 46.8285 20.6331 46.9778L20.5969 47.0343L20.5606 47.0907L20.4801 47.2199L20.4317 47.2965L20.4076 47.3328L20.3794 47.3692L20.2706 47.5104C20.1216 47.6879 19.9565 47.8412 19.7873 47.9825C19.0986 48.5352 18.3011 48.8822 17.4634 49.0557C17.0445 49.1445 16.6135 49.1727 16.1866 49.1445L16.0255 49.1324C15.9731 49.1284 15.9208 49.1203 15.8644 49.1122C15.812 49.1042 15.7597 49.1001 15.7073 49.088L15.5502 49.0557C15.3408 49.0114 15.1354 48.9428 14.938 48.8621C14.5433 48.7047 14.1849 48.4626 13.8788 48.1721C13.5767 47.8816 13.331 47.5427 13.1377 47.1835L13.2021 47.1432C13.4478 47.462 13.7257 47.7484 14.0399 47.9784C14.354 48.2084 14.7004 48.3859 15.0669 48.4909C15.2522 48.5433 15.4375 48.5837 15.6268 48.6038L15.7677 48.62C15.8161 48.624 15.8644 48.624 15.9087 48.628C15.957 48.628 16.0013 48.6361 16.0497 48.6361H16.1906C16.5692 48.628 16.9478 48.5675 17.3143 48.4626C17.6809 48.3577 18.0353 48.2165 18.3696 48.043C18.7039 47.8695 19.018 47.6516 19.2919 47.4135C19.4248 47.2885 19.5497 47.1593 19.6584 47.0262L19.7309 46.9213L19.7511 46.8971L19.7672 46.8688L19.7994 46.8164L19.8155 46.7922C19.8195 46.7841 19.8276 46.776 19.8316 46.7639L19.8719 46.6913L19.9122 46.6187L19.9565 46.546C20.0773 46.3564 20.2102 46.1789 20.3512 46.0134C20.4921 45.848 20.6452 45.6947 20.7942 45.5494C21.1003 45.2589 21.4185 44.9966 21.7407 44.7424C22.0629 44.4882 22.3811 44.2421 22.7033 44C23.3437 43.5118 23.9801 43.0276 24.6043 42.5192C25.2286 42.0149 25.8328 41.4903 26.4409 40.9658L26.6665 40.7681C26.7027 40.7358 26.743 40.7035 26.7793 40.6672L26.888 40.5663L27.1055 40.3686L27.3149 40.1588L27.4196 40.0539L27.5203 39.945L27.7177 39.7271C27.8426 39.5737 27.9714 39.4285 28.0882 39.2671C28.2091 39.1097 28.3178 38.9443 28.4266 38.7829L28.5796 38.5287C28.6038 38.4884 28.6279 38.444 28.6521 38.3996L28.7206 38.2705C28.7447 38.2261 28.7689 38.1817 28.789 38.1373L28.8535 38.0042C28.8938 37.9154 28.9381 37.8266 28.9743 37.7338C29.0508 37.5523 29.1193 37.3626 29.1837 37.177C29.4335 36.4185 29.5623 35.6236 29.651 34.8247C29.7436 34.0217 29.7919 33.2107 29.945 32.3957C30.0215 31.9882 30.1222 31.5847 30.2672 31.1852C30.3034 31.0884 30.3437 30.9875 30.384 30.8907C30.4243 30.7938 30.4726 30.697 30.5129 30.6002L30.5451 30.5275L30.5733 30.463L30.6337 30.3338C30.674 30.2491 30.7062 30.1603 30.7424 30.0675C30.8794 29.7084 30.9922 29.3413 31.0767 28.9579C31.0888 28.9095 31.1009 28.8651 31.109 28.8167L31.1412 28.6715C31.1613 28.5746 31.1814 28.4818 31.1976 28.385L31.2499 28.0945L31.2942 27.804C31.3506 27.4126 31.3989 27.0212 31.4312 26.6217C31.4392 26.5209 31.4473 26.424 31.4553 26.3232C31.4634 26.2223 31.4714 26.1255 31.4755 26.0246C31.4875 25.8269 31.4996 25.6251 31.5077 25.4274C31.5721 23.8296 31.5359 22.2197 31.4634 20.6017L31.552 20.5977Z" fill="#333333"/>
<path d="M26.6581 25.0241C26.4245 25.2582 26.4124 25.6657 26.8071 25.5164C27.2018 25.3671 27.7455 25.4196 28.2369 25.5164C28.7283 25.6132 30.3957 25.4639 30.6535 24.3301C30.8992 23.2447 30.9475 23.1963 30.9475 23.1963C30.9475 23.1963 30.3152 23.2286 29.7634 22.9986C29.1713 22.7525 27.7898 22.9986 27.2018 24.084C26.7265 24.9555 26.8554 24.8264 26.6581 25.0241Z" fill="#333333"/>
<path d="M26.5376 23.9596C26.6302 23.6045 26.8075 23.2777 27.033 22.9832C27.1458 22.8379 27.2747 22.7007 27.4196 22.5797C27.4559 22.5514 27.4921 22.5191 27.5284 22.4909L27.6452 22.4102L27.766 22.3335C27.8063 22.3093 27.8506 22.2892 27.8909 22.2649C27.9312 22.2407 27.9755 22.2246 28.0198 22.2044L28.0842 22.1762L28.1527 22.152C28.2413 22.1197 28.3339 22.0995 28.4266 22.0753C28.6118 22.039 28.8052 22.0309 28.9904 22.039C29.365 22.0713 29.7234 22.1883 30.0336 22.3739C29.6791 22.2972 29.3287 22.2448 28.9864 22.2609C28.8172 22.273 28.6481 22.2932 28.4829 22.3335C28.3218 22.3779 28.1607 22.4344 28.0117 22.5111C27.7096 22.6604 27.4398 22.8742 27.1941 23.1244C26.9524 23.3786 26.735 23.657 26.5376 23.9596Z" fill="#333333"/>
<path d="M31.9346 25.5168C34.0531 26.0091 35.1406 25.1214 37.3074 24.2337C39.4783 23.3461 41.0531 25.2223 41.0531 25.2223C40.9041 19.4927 38.1452 19.295 37.6538 19.3475C37.1624 19.3959 36.5704 20.336 34.3028 19.3959C32.0353 18.4558 31.2217 19.4685 31.2217 19.4685C31.2217 19.4685 31.6647 20.3078 31.9346 25.3716V25.5168Z" fill="#333333"/>
<path d="M29.0752 15.1309C29.3732 15.4133 29.6713 15.6836 29.9774 15.9419C30.2835 16.2041 30.5976 16.4503 30.9239 16.6722C31.085 16.7852 31.2501 16.886 31.4193 16.9788C31.5884 17.0716 31.7616 17.1483 31.9308 17.2048C31.9751 17.2169 32.0154 17.229 32.0597 17.2411C32.104 17.2532 32.1442 17.2572 32.1926 17.2653C32.2409 17.2734 32.2852 17.2774 32.3335 17.2855C32.3819 17.2936 32.4302 17.2976 32.4785 17.3057C32.6719 17.3258 32.8692 17.346 33.0706 17.3662C33.272 17.3823 33.4734 17.4065 33.6747 17.4267C33.8761 17.4509 34.0815 17.4751 34.2869 17.5074C34.6937 17.572 35.1045 17.6648 35.5033 17.7939C35.902 17.923 36.2887 18.0925 36.6471 18.3104C37.0056 18.5282 37.3318 18.7905 37.6057 19.0972C37.2392 18.9075 36.8767 18.7381 36.5062 18.6049C36.1356 18.4717 35.757 18.3668 35.3704 18.2861C35.177 18.2458 34.9837 18.2095 34.7904 18.1772C34.5971 18.149 34.3997 18.1167 34.2024 18.0925C34.005 18.0683 33.8077 18.0441 33.6103 18.0239C33.4129 17.9997 33.2116 17.9795 33.0062 17.9512C32.8048 17.927 32.5994 17.8988 32.394 17.8584C32.2892 17.8383 32.1885 17.8181 32.0838 17.7899C32.0355 17.7777 31.9751 17.7616 31.9187 17.7455C31.8623 17.7293 31.81 17.7092 31.7576 17.689C31.3387 17.5195 30.9964 17.2653 30.6742 16.995C30.356 16.7206 30.07 16.4261 29.8042 16.1113C29.5384 15.8047 29.2927 15.4738 29.0752 15.1309Z" fill="#333333"/>
<path d="M10.3426 17.862C10.3426 17.862 9.06182 16.4296 7.03995 17.4666C5.01809 18.5036 4.72407 17.7127 3.88632 17.515C3.04858 17.3173 0.487009 17.4666 0.188965 22.8976C0.188965 22.8976 2.45652 21.3159 4.08368 22.3529C5.71084 23.3898 8.07505 23.7853 8.86447 23.4867C8.86447 23.4907 8.29657 20.5533 10.3426 17.862Z" fill="#333333"/>
<path d="M11.317 25.8439C11.317 25.8439 10.9746 24.815 10.4027 24.125C9.83076 23.4391 9.31926 23.3221 9.03329 23.4391C8.74733 23.5521 8.74733 25.2145 9.94756 25.3839C11.1478 25.5574 11.317 25.8439 11.317 25.8439Z" fill="#333333"/>
<path d="M11.0032 23.588C10.8542 23.4428 10.7051 23.3015 10.544 23.1765C10.3869 23.0474 10.2218 22.9344 10.0446 22.8416C9.86738 22.7488 9.68614 22.6721 9.49282 22.6358C9.29949 22.5954 9.09811 22.5914 8.88867 22.6156C8.98533 22.5712 9.08603 22.539 9.19074 22.5228C9.29546 22.5067 9.40421 22.4986 9.51295 22.5107C9.72642 22.5309 9.93585 22.5995 10.1252 22.7003C10.3145 22.8053 10.4836 22.9344 10.6326 23.0837C10.7776 23.233 10.9105 23.4024 11.0032 23.588Z" fill="#333333"/>
<path d="M21.8296 41.1186C21.7088 41.8529 21.4994 42.5711 21.2376 43.2732C21.1047 43.6242 20.9516 43.9672 20.7825 44.3021C20.6979 44.4716 20.6093 44.637 20.5126 44.7984C20.42 44.9598 20.3193 45.1212 20.2146 45.2785C19.7917 45.904 19.2761 46.4809 18.6518 46.9369L18.535 47.0216L18.4142 47.1023C18.3337 47.1588 18.2491 47.2032 18.1685 47.2556C18.0839 47.3 17.9994 47.3525 17.9108 47.3928L17.7778 47.4574L17.6449 47.5139C17.2865 47.6672 16.9079 47.7761 16.5253 47.8407C15.756 47.9698 14.9625 47.9133 14.2174 47.7439C13.8429 47.6591 13.4723 47.5502 13.1098 47.409C13.0172 47.3767 12.9286 47.3323 12.84 47.296C12.7514 47.2556 12.6628 47.2113 12.5742 47.1669L12.4453 47.0983L12.3808 47.062L12.3164 47.0257L12.1915 46.949L12.0667 46.8683L12.0063 46.8279L11.9458 46.7836L11.825 46.6948C11.7485 46.6302 11.6679 46.5697 11.5954 46.5011C11.5189 46.4366 11.4505 46.3639 11.378 46.2913C11.3417 46.255 11.3095 46.2187 11.2773 46.1824C11.241 46.146 11.2088 46.1057 11.1806 46.0694C11.1162 45.9927 11.0557 45.912 10.9953 45.8313C10.9389 45.7466 10.8826 45.6659 10.8302 45.5771C10.7255 45.4036 10.6328 45.2261 10.5563 45.0405C10.4033 44.6693 10.3026 44.2819 10.2462 43.8905C10.1898 43.4992 10.1737 43.1078 10.1858 42.7204C10.214 41.9457 10.359 41.1912 10.5402 40.4609L10.6771 39.9202C10.7013 39.8314 10.7215 39.7427 10.7416 39.6579C10.7617 39.5732 10.7819 39.4844 10.7859 39.4199C10.7859 39.4118 10.7899 39.4037 10.7899 39.3957C10.7899 39.3916 10.7899 39.3836 10.7899 39.3795V39.3109C10.7899 39.2625 10.7939 39.2141 10.7939 39.1657C10.798 39.0689 10.806 38.968 10.8141 38.8711C10.8342 38.6734 10.8664 38.4717 10.9228 38.274C10.951 38.1731 10.9832 38.0722 11.0276 37.9754C11.0638 37.8907 11.096 37.81 11.1282 37.7252C11.1927 37.5598 11.2491 37.3903 11.2974 37.2209C11.3457 37.0514 11.386 36.8779 11.4223 36.7044C11.4545 36.5309 11.4786 36.3574 11.4948 36.1799C11.5109 36.0064 11.5189 35.8288 11.5149 35.6513C11.5149 35.5625 11.5109 35.4738 11.5068 35.389C11.5028 35.3003 11.4948 35.2075 11.4867 35.1187C11.4545 34.7596 11.4021 34.4045 11.3055 34.0777C11.2813 33.997 11.2531 33.9163 11.2209 33.8437C11.2048 33.8074 11.1887 33.771 11.1685 33.7388C11.1605 33.7226 11.1484 33.7065 11.1403 33.6903L11.1242 33.6661L11.1041 33.6339C10.9913 33.4563 10.9067 33.2748 10.8342 33.0932C10.6933 32.73 10.5926 32.3629 10.508 31.9917C10.3469 31.2533 10.2462 30.5109 10.1777 29.7644C10.1455 29.3932 10.1254 29.0179 10.1133 28.6427C10.1093 28.5499 10.1093 28.4571 10.1012 28.3683C10.0972 28.2796 10.0891 28.1868 10.077 28.098C10.0569 27.9164 10.0287 27.7389 9.98842 27.5573C9.9119 27.1982 9.79913 26.8472 9.65816 26.5082C9.62191 26.4235 9.58566 26.3388 9.55344 26.246C9.52122 26.1572 9.49705 26.0684 9.47289 25.9756C9.42858 25.7941 9.40442 25.6085 9.40039 25.4229C9.42456 25.6085 9.46483 25.79 9.52122 25.9635C9.54941 26.0523 9.58163 26.137 9.62191 26.2218C9.65816 26.3065 9.70246 26.3832 9.74677 26.4679C9.91593 26.8028 10.0569 27.1498 10.1616 27.5129C10.214 27.6945 10.2583 27.8801 10.2905 28.0657C10.3066 28.1585 10.3187 28.2513 10.3308 28.3481C10.3429 28.4409 10.3509 28.5378 10.359 28.6266C10.3952 28.9937 10.4355 29.3609 10.4919 29.724C10.5966 30.4544 10.7255 31.1806 10.9188 31.8867C11.0155 32.2378 11.1242 32.5848 11.2652 32.9076C11.3377 33.069 11.4142 33.2223 11.5068 33.3554L11.5471 33.416C11.5632 33.4402 11.5793 33.4644 11.5914 33.4846C11.6196 33.533 11.6438 33.5774 11.6679 33.6258C11.7163 33.7226 11.7525 33.8154 11.7847 33.9123C11.9136 34.2956 11.9781 34.6749 12.0224 35.0541C12.0345 35.151 12.0425 35.2438 12.0506 35.3406C12.0586 35.4375 12.0667 35.5343 12.0667 35.6352C12.0747 35.8288 12.0707 36.0265 12.0586 36.2202C12.0465 36.4139 12.0224 36.6076 11.9902 36.8012C11.9579 36.9949 11.9136 37.1846 11.8653 37.3702C11.817 37.5598 11.7565 37.7454 11.6881 37.927C11.6559 38.0157 11.6196 38.1085 11.5834 38.1973C11.5552 38.2699 11.531 38.3466 11.5068 38.4273C11.4666 38.5847 11.4384 38.7541 11.4223 38.9236C11.4142 39.0083 11.4102 39.0971 11.4061 39.1818C11.4061 39.2262 11.4021 39.2706 11.4021 39.315V39.3836L11.3981 39.436C11.3981 39.4522 11.3941 39.4683 11.3941 39.4844C11.382 39.6015 11.3578 39.6983 11.3377 39.7951C11.3175 39.892 11.2934 39.9807 11.2732 40.0735L11.1403 40.6142C10.9671 41.3244 10.8383 42.0385 10.8101 42.7487C10.7819 43.4588 10.8624 44.1649 11.1242 44.7984C11.1887 44.9558 11.2652 45.1091 11.3498 45.2543C11.39 45.327 11.4384 45.3996 11.4867 45.4682C11.5391 45.5368 11.5874 45.6054 11.6397 45.6699C11.6679 45.7022 11.6921 45.7345 11.7203 45.7668C11.7485 45.7991 11.7767 45.8313 11.8049 45.8636C11.8653 45.9241 11.9217 45.9847 11.9861 46.0411C12.0465 46.1017 12.115 46.1541 12.1795 46.2106L12.2801 46.2873L12.3325 46.3276L12.3849 46.3639L12.4896 46.4366L12.5983 46.5052L12.6547 46.5415L12.7111 46.5738L12.8239 46.6383C12.9004 46.6787 12.9769 46.719 13.0575 46.7553C13.138 46.7916 13.2145 46.832 13.2991 46.8643C13.6254 47.0014 13.9637 47.1104 14.3141 47.1951C14.6605 47.2839 15.0109 47.3444 15.3653 47.3686C15.7157 47.3969 16.0701 47.3928 16.4205 47.3444C17.1173 47.2556 17.7899 46.9974 18.382 46.602L18.4384 46.5657L18.4948 46.5253L18.6035 46.4487C18.672 46.3922 18.7485 46.3397 18.817 46.2832C18.9579 46.1703 19.0868 46.0492 19.2197 45.9241C19.3486 45.799 19.4735 45.6659 19.5903 45.5287C19.7071 45.3915 19.8239 45.2503 19.9326 45.105C20.3716 44.524 20.7381 43.8825 21.0483 43.2127C21.2054 42.8778 21.3423 42.5348 21.4712 42.1878C21.6202 41.8328 21.733 41.4817 21.8296 41.1186Z" fill="#333333"/>
<path d="M16.2148 41.1281C15.1394 40.9626 14.9018 42.1529 14.9018 42.1529C14.9018 42.1529 14.8414 40.9425 13.7539 40.9828C12.6664 41.0191 11.5669 39.4697 11.5669 39.4697C11.6958 39.7844 12.2919 40.6398 12.6262 40.8658C12.9605 41.0918 12.9967 40.9707 13.1457 41.3056C13.8183 42.8187 14.6319 43.0325 14.6722 43.1374C14.7165 43.2423 14.793 44.5295 14.793 44.5295C14.793 44.5295 15.0105 43.2625 15.0669 43.1616C15.1233 43.0608 15.9892 42.8187 16.7867 41.5235C16.98 41.2128 16.9961 41.3298 17.3506 41.1482C17.705 40.9626 18.3897 40.1839 18.5548 39.8894C18.5548 39.8853 17.2942 41.2935 16.2148 41.1281Z" fill="#333333"/>
<path d="M2.38379 17.2942C2.52878 17.1086 2.70197 16.9472 2.88321 16.7939C3.06446 16.6446 3.26181 16.5074 3.46722 16.3864C3.87804 16.1443 4.3251 15.9546 4.78828 15.8255C5.02188 15.761 5.25548 15.7126 5.49714 15.6722C5.55756 15.6641 5.61797 15.6561 5.67839 15.648L5.85963 15.6278C5.98046 15.6157 6.09726 15.6076 6.21809 15.6036C6.69335 15.5794 7.16055 15.5915 7.62373 15.6036C8.54605 15.6278 9.45227 15.6601 10.3303 15.4947C10.7693 15.414 11.1962 15.2849 11.599 15.0912C12.0058 14.8975 12.3884 14.6393 12.7469 14.3447C12.477 14.728 12.1387 15.067 11.744 15.3413C11.3493 15.6157 10.9022 15.8175 10.435 15.9506C9.97183 16.0838 9.49255 16.1564 9.01729 16.1846C8.54203 16.2169 8.07079 16.2129 7.60762 16.2048C7.14444 16.1967 6.68529 16.1806 6.2342 16.1846C6.12142 16.1887 6.00865 16.1887 5.89588 16.1927L5.73074 16.2008C5.67436 16.2048 5.622 16.2088 5.56561 16.2129C5.34409 16.229 5.12257 16.2613 4.90508 16.2976C4.46607 16.3783 4.03109 16.4953 3.61221 16.6608C3.18126 16.8343 2.77044 17.032 2.38379 17.2942Z" fill="#333333"/>
<path d="M10.5438 31.2012C10.5036 31.3464 10.4552 31.4917 10.4029 31.6369C10.3505 31.7782 10.2941 31.9234 10.2377 32.0646C10.1209 32.3471 9.99607 32.6255 9.85913 32.8958C9.58526 33.4405 9.27513 33.9691 8.93681 34.4775C8.25614 35.4943 7.44256 36.4264 6.52829 37.2535C6.29469 37.4553 6.06511 37.657 5.81943 37.8426C5.57777 38.0363 5.32403 38.2098 5.07432 38.3873L4.68767 38.6375L4.591 38.698C4.55878 38.7182 4.52656 38.7383 4.49434 38.7585L4.29296 38.8715L4.09158 38.9845C4.02311 39.0208 3.95867 39.0611 3.8902 39.0934L3.47938 39.3032L3.37869 39.3557L3.27397 39.4041L3.06453 39.4969L2.8551 39.5897C2.81885 39.6058 2.78663 39.622 2.75038 39.6341L2.64163 39.6744L2.21068 39.8358L2.10193 39.8762L1.99319 39.9125L1.77569 39.9811L1.5582 40.0497L1.44946 40.082C1.41321 40.0941 1.37696 40.1021 1.33668 40.1102C1.18766 40.1465 1.04267 40.1828 0.893644 40.2192C0.744622 40.2555 0.5956 40.2837 0.446578 40.3079C0.297556 40.3321 0.148534 40.3604 -0.000488281 40.3805C0.140479 40.3241 0.281445 40.2716 0.422412 40.2192L0.635876 40.1425L0.688235 40.1223L0.740594 40.1021L0.845313 40.0578C0.982252 39.9972 1.12322 39.9448 1.26016 39.8883C1.29641 39.8721 1.32863 39.86 1.36488 39.8439L1.46557 39.7955L1.67098 39.7027L1.87638 39.6099L1.97707 39.5655L2.07777 39.513L2.4765 39.3113L2.57719 39.2629L2.67385 39.2104L2.87121 39.1015L3.06856 38.9925L3.16522 38.9401L3.26189 38.8836L3.64451 38.6536C3.70895 38.6173 3.76937 38.577 3.83381 38.5366L4.01908 38.4156L4.20435 38.2945C4.26476 38.2542 4.32518 38.2098 4.38559 38.1694L4.74808 37.9152C4.98168 37.7337 5.22334 37.5642 5.44889 37.3705C5.68249 37.1889 5.90401 36.9912 6.12553 36.7976C7.00355 36.0067 7.81713 35.1352 8.55418 34.1951C8.92473 33.727 9.2711 33.2428 9.60539 32.7425C9.93566 32.2462 10.2538 31.7338 10.5438 31.2012Z" fill="#333333"/>
<path d="M26.6544 41.5069C26.2234 42.4793 25.7925 43.4436 25.3857 44.416C25.1843 44.9002 24.987 45.3885 24.7977 45.8767L24.2418 47.3454C24.0606 47.8376 23.8753 48.3259 23.7183 48.8302C23.5612 49.3305 23.4283 49.843 23.3477 50.3635C23.3316 50.4926 23.3115 50.6257 23.2994 50.7549C23.2873 50.884 23.2792 51.0171 23.2672 51.1462C23.2591 51.2794 23.247 51.4125 23.239 51.5457C23.2349 51.578 23.2349 51.6143 23.2309 51.6466L23.2188 51.7474L23.1987 51.9492C23.1343 52.4818 23.0416 53.0144 22.9168 53.5389C22.6751 54.592 22.2925 55.6048 21.8212 56.5732C21.5876 57.0574 21.3379 57.5335 21.0721 58.0015C20.8063 58.4696 20.5203 58.9215 20.2223 59.3653C19.6181 60.249 18.9616 61.0963 18.2528 61.8992C17.8983 62.2987 17.5359 62.6941 17.1613 63.0693C16.7867 63.4486 16.396 63.8118 15.9892 64.1588L15.9409 64.1103C17.2298 62.4197 18.4743 60.721 19.6141 58.9578C19.9001 58.518 20.182 58.0741 20.4559 57.6303C20.7298 57.1824 20.9956 56.7346 21.2453 56.2746C21.499 55.8146 21.7246 55.3466 21.9501 54.8745C22.0629 54.6405 22.1676 54.3984 22.2723 54.1603L22.4214 53.7972C22.4697 53.6761 22.514 53.551 22.5623 53.43C22.7395 52.9377 22.8886 52.4334 22.9731 51.9169L23.0054 51.7232C23.0175 51.6587 23.0255 51.5941 23.0295 51.5296C23.0416 51.4004 23.0537 51.2713 23.0658 51.1382L23.094 50.7387C23.1101 50.6056 23.1181 50.4724 23.1343 50.3393C23.1947 49.8067 23.2631 49.2781 23.3558 48.7455C23.4484 48.2169 23.5572 47.6883 23.7062 47.1719C23.8512 46.6554 24.0324 46.147 24.2378 45.6548C24.4432 45.1585 24.6688 44.6743 24.9104 44.1941C25.1521 43.718 25.4139 43.25 25.6918 42.794C25.9737 42.3381 26.2677 41.8942 26.602 41.4746L26.6544 41.5069Z" fill="#333333"/>
<path d="M12.3364 14.7274C12.413 14.6386 12.4895 14.5458 12.562 14.453C12.6345 14.3602 12.707 14.2674 12.7754 14.1705C12.9124 13.9809 13.0372 13.7832 13.1379 13.5815L13.1742 13.5048L13.2104 13.4281C13.2346 13.3797 13.2547 13.3232 13.2789 13.2667C13.3232 13.1578 13.3715 13.0448 13.4239 12.9318C13.5326 12.7059 13.6615 12.484 13.8266 12.2822C13.9072 12.1813 13.9958 12.0845 14.0925 11.9957C14.1891 11.907 14.2898 11.8263 14.3986 11.7496C14.612 11.6003 14.8456 11.4833 15.0873 11.3945C15.5666 11.213 16.07 11.1444 16.5654 11.1403C16.8111 11.1403 17.0608 11.1484 17.3065 11.1888C17.5522 11.2251 17.7979 11.2775 18.0355 11.3663C18.2731 11.451 18.4987 11.568 18.7041 11.7093C18.8048 11.7779 18.9055 11.8545 18.9981 11.9352C19.0908 12.0159 19.1794 12.0966 19.268 12.1773C19.4412 12.3387 19.6143 12.5001 19.8036 12.6252C19.9929 12.7503 20.2064 12.831 20.4279 12.8673C20.5407 12.8875 20.6535 12.8915 20.7662 12.8915C20.879 12.8915 20.9878 12.8794 21.0925 12.8552C21.3019 12.8027 21.4952 12.7018 21.6725 12.5687C21.8497 12.4355 22.0188 12.2782 22.184 12.1128C22.3531 11.9514 22.5263 11.7779 22.7156 11.6205C22.9049 11.4591 23.1143 11.3098 23.3399 11.1847C23.5654 11.0596 23.8152 10.9628 24.0689 10.8983C24.3226 10.8337 24.5844 10.8014 24.8422 10.7974C25.1 10.7933 25.3577 10.8135 25.6074 10.8579C25.7323 10.8781 25.8572 10.9063 25.978 10.9346C26.0988 10.9668 26.2196 10.9991 26.3405 11.0354C26.4613 11.0718 26.5781 11.1121 26.6949 11.1565C26.8117 11.2009 26.9285 11.2493 27.0453 11.3058C27.2749 11.4147 27.4964 11.5438 27.7058 11.6931C27.9153 11.8465 28.1086 12.02 28.2818 12.2136C28.455 12.4113 28.6 12.6292 28.7127 12.8592C28.8255 13.0892 28.9141 13.3313 28.9705 13.5774C29.0269 13.8235 29.0672 14.0656 29.0873 14.3077L29.1195 14.6628C29.1316 14.7758 29.1437 14.8928 29.1719 14.9896C29.1799 15.0138 29.188 15.038 29.1961 15.0582L29.2041 15.0744C29.2081 15.0784 29.2081 15.0824 29.2122 15.0905L29.2363 15.1268C29.2686 15.1752 29.3008 15.2237 29.337 15.2721C29.4055 15.3689 29.474 15.4617 29.5465 15.5545C29.6915 15.7401 29.8445 15.9217 30.0056 16.0952L29.9653 16.1396C29.7801 15.9862 29.6028 15.8249 29.4337 15.6554C29.3491 15.5707 29.2686 15.4819 29.188 15.3891C29.1477 15.3447 29.1075 15.2963 29.0712 15.2519L29.043 15.2156C29.035 15.2035 29.0188 15.1873 29.0108 15.1712C28.9906 15.1389 28.9705 15.1107 28.9584 15.0784C28.898 14.9533 28.8658 14.8323 28.8376 14.7153L28.753 14.3642C28.7248 14.2512 28.6966 14.1383 28.6684 14.0253C28.6362 13.9163 28.604 13.8074 28.5637 13.6985C28.4872 13.4887 28.3905 13.2869 28.2778 13.1013C28.165 12.9157 28.028 12.7462 27.875 12.5929C27.5689 12.2903 27.1943 12.0563 26.7835 11.8828C26.5821 11.794 26.3687 11.7214 26.1512 11.6568C26.0988 11.6407 26.0424 11.6245 25.9901 11.6084L25.8249 11.568C25.7162 11.5398 25.6074 11.5156 25.4987 11.4954C25.0637 11.4147 24.6207 11.3905 24.2058 11.4752C23.9964 11.5156 23.795 11.5882 23.6017 11.681C23.4084 11.7738 23.2191 11.8949 23.0378 12.028C22.6673 12.2903 22.3169 12.6252 21.8738 12.8794C21.6523 13.0045 21.4066 13.1053 21.1448 13.1336C21.016 13.1497 20.8871 13.1538 20.7582 13.1417C20.6333 13.1295 20.5085 13.1134 20.3876 13.0852C20.142 13.0287 19.9084 12.9238 19.7029 12.7866C19.4975 12.6494 19.3203 12.4799 19.1431 12.3266C18.9659 12.1692 18.7847 12.028 18.5833 11.915C18.4826 11.8586 18.3819 11.8142 18.2772 11.7738C18.1725 11.7375 18.0637 11.7052 17.9509 11.681C17.5079 11.5882 17.0528 11.6084 16.5936 11.6487C16.1385 11.6931 15.6914 11.7658 15.2766 11.911C14.8617 12.0563 14.4872 12.2782 14.1932 12.5969C14.0441 12.7543 13.9153 12.9359 13.7985 13.1295C13.738 13.2264 13.6817 13.3273 13.6253 13.4322C13.5971 13.4846 13.5689 13.5371 13.5326 13.5895L13.4843 13.6702L13.4319 13.7469C13.2869 13.9527 13.1258 14.1383 12.9486 14.3077C12.7714 14.4772 12.5861 14.6305 12.3888 14.7677L12.3364 14.7274Z" fill="#333333"/>
<path d="M18.1437 11.5964C17.8014 10.273 17.4268 8.96971 16.9757 7.70275C16.7502 7.06927 16.5005 6.44386 16.2266 5.83863C15.9487 5.2334 15.6426 4.6443 15.3002 4.07942C15.127 3.79698 14.9458 3.52664 14.7444 3.26437C14.5471 3.0021 14.3296 2.75597 14.0919 2.53002C13.9751 2.41704 13.8463 2.31214 13.7174 2.21126C13.6529 2.16285 13.5845 2.11039 13.516 2.07004L13.4113 2.00145L13.3025 1.93689C13.0166 1.76339 12.7185 1.60603 12.4124 1.46481C11.8002 1.1864 11.1518 0.984658 10.4912 0.867646C10.3261 0.839402 10.161 0.815193 9.99182 0.795018C9.82669 0.778878 9.65753 0.766774 9.49239 0.758704C9.1581 0.742564 8.82784 0.758704 8.5016 0.799053C8.34049 0.819227 8.17939 0.851506 8.02634 0.887821C7.94981 0.907995 7.87732 0.932204 7.80885 0.956414C7.77663 0.968518 7.74038 0.984658 7.71218 0.996763C7.68399 1.0129 7.65982 1.02501 7.64371 1.03711V1.04922C7.64371 1.04922 7.64371 1.04922 7.64371 1.05325H7.64774C7.64774 1.05325 7.6558 1.04518 7.65982 1.03711C7.65982 1.03711 7.66385 1.03308 7.66385 1.02904C7.66788 1.02501 7.66788 1.02097 7.67191 1.01694C7.67191 1.0129 7.67593 1.00887 7.67593 1.00483C7.67593 1.0008 7.67996 0.992728 7.68399 0.988693C7.68802 0.976588 7.68802 0.964483 7.68802 0.948344C7.68802 0.932204 7.68802 0.916065 7.68399 0.899925C7.68399 0.88782 7.67996 0.871681 7.67191 0.859576C7.66788 0.851506 7.66788 0.847472 7.66385 0.843437C7.65982 0.839402 7.65982 0.835367 7.6558 0.831332C7.65177 0.827297 7.65177 0.823262 7.64774 0.819227C7.64371 0.815192 7.64371 0.815192 7.64371 0.811158C7.63969 0.807123 7.63566 0.803088 7.63163 0.799053C7.6276 0.795018 7.6276 0.795018 7.62358 0.790983H7.6276C7.63163 0.790983 7.63566 0.795018 7.63969 0.795018L7.67996 0.803088L7.79676 0.831332C7.95787 0.867646 8.123 0.90396 8.29216 0.944309C8.96477 1.0936 9.64544 1.30341 10.2939 1.62621C10.6161 1.7876 10.9303 1.97724 11.2202 2.20319C11.5102 2.42915 11.7801 2.69142 12.0137 2.99C12.2433 3.28858 12.4366 3.61944 12.5735 3.97048C12.6057 4.05924 12.642 4.14801 12.6702 4.23274C12.6984 4.31748 12.7225 4.40221 12.7507 4.48694L12.8232 4.74114C12.8474 4.82587 12.8675 4.91061 12.8917 4.99534C13.0609 5.6732 13.1857 6.3551 13.2864 7.03699C13.3871 7.71889 13.4636 8.40079 13.52 9.08672C13.5764 9.77265 13.6127 10.4586 13.6207 11.1445C13.6247 11.4875 13.6207 11.8345 13.6046 12.1774C13.6006 12.2622 13.5965 12.3509 13.5885 12.4357C13.5845 12.5204 13.5724 12.6092 13.5643 12.6939C13.5522 12.7786 13.5442 12.8674 13.524 12.9521C13.5079 13.0369 13.4878 13.1256 13.4556 13.2104L13.3831 13.1862C13.4113 13.0288 13.3992 12.8553 13.3952 12.6899C13.3871 12.5204 13.371 12.3509 13.3549 12.1855C13.3227 11.8466 13.2784 11.5117 13.2341 11.1768C13.1414 10.503 13.0367 9.83317 12.9239 9.16338C12.8112 8.49359 12.6903 7.82783 12.5574 7.16611C12.4245 6.50439 12.2795 5.8467 12.1063 5.20515C12.0822 5.12446 12.062 5.04376 12.0419 4.96709L11.9734 4.72904C11.9492 4.64834 11.9251 4.57168 11.9009 4.49501C11.8888 4.45466 11.8727 4.42238 11.8606 4.38607L11.8204 4.27713C11.7116 3.99065 11.5626 3.72435 11.3813 3.47822C11.2001 3.23209 10.9907 3.00614 10.749 2.80439C10.5074 2.60265 10.2456 2.42511 9.96363 2.27179C9.68169 2.11846 9.38767 1.98128 9.08158 1.86426C8.77548 1.74725 8.46132 1.64235 8.13911 1.54147C7.97801 1.48902 7.8169 1.4406 7.64774 1.38815C7.60747 1.37604 7.56316 1.3599 7.51886 1.34376L7.50275 1.33569L7.48261 1.32762C7.4665 1.32359 7.45442 1.31552 7.4383 1.31148L7.394 1.28727C7.37789 1.2792 7.35775 1.2671 7.34164 1.255C7.3215 1.23886 7.30137 1.22675 7.28123 1.21061C7.26914 1.19851 7.25706 1.19044 7.24901 1.17833C7.24498 1.17026 7.24095 1.16623 7.2329 1.15816C7.22887 1.15009 7.22081 1.14202 7.21679 1.13395C7.21276 1.12588 7.2047 1.11781 7.20068 1.10974C7.19665 1.10167 7.19262 1.0936 7.18456 1.0815C7.17651 1.05729 7.16845 1.03308 7.1604 1.0129C7.15637 0.988693 7.15234 0.960449 7.15234 0.932204C7.15234 0.90396 7.15637 0.883786 7.16443 0.859576C7.16845 0.847472 7.17248 0.835367 7.17248 0.827297C7.17651 0.819227 7.18054 0.811158 7.18456 0.799053C7.19262 0.782913 7.2047 0.762739 7.21276 0.750634C7.22887 0.726425 7.24901 0.702216 7.26512 0.686076L7.28928 0.661867C7.29734 0.653797 7.30539 0.649762 7.31345 0.641692L7.33761 0.625553L7.35775 0.613448C7.41414 0.577134 7.4665 0.552925 7.51483 0.536785C7.56316 0.516611 7.61149 0.504506 7.65982 0.488366C7.75246 0.464157 7.8451 0.443983 7.93773 0.431878C8.11897 0.403634 8.29619 0.391529 8.4734 0.387494C9.18227 0.371355 9.87099 0.468192 10.5436 0.617483C11.2162 0.766774 11.8727 0.980623 12.5131 1.23886C12.6702 1.30341 12.8313 1.36797 12.9884 1.4406C13.0689 1.47691 13.1454 1.51323 13.226 1.54954C13.3025 1.58586 13.3831 1.62217 13.4596 1.66252L13.5764 1.71901L13.6932 1.77953C13.7738 1.81988 13.8463 1.86426 13.9228 1.90865C14.0718 2.00145 14.2208 2.09829 14.3618 2.20319C14.6478 2.41301 14.9095 2.65107 15.1552 2.9093C15.4009 3.1635 15.6265 3.43787 15.8319 3.72435C16.2427 4.2973 16.577 4.91868 16.8509 5.56022C17.1288 6.19774 17.3583 6.85542 17.5476 7.52118C17.7369 8.18694 17.89 8.86076 18.0028 9.53862C18.1155 10.2165 18.2001 10.9024 18.2203 11.5883L18.1437 11.5964Z" fill="#333333"/>
<path d="M23.0986 11.3543C23.1993 10.9468 23.3282 10.5514 23.4611 10.1559C23.5981 9.76051 23.7431 9.36913 23.9001 8.98178C24.2143 8.20708 24.5727 7.44852 24.9715 6.71417C25.1688 6.34296 25.3823 5.98386 25.6038 5.62475C25.8294 5.26968 26.063 4.91865 26.3127 4.57568C26.8081 3.89378 27.3639 3.24417 27.9962 2.67525C28.3144 2.39281 28.6487 2.1265 29.0031 1.88844C29.3576 1.65039 29.7321 1.44057 30.1228 1.26304C30.2195 1.21865 30.3202 1.1783 30.4168 1.13795C30.5175 1.10164 30.6142 1.05726 30.7189 1.02498L30.8719 0.972524L31.021 0.924105C31.1217 0.891826 31.2224 0.863582 31.323 0.835338C31.5244 0.778849 31.7258 0.718326 31.9272 0.665872C32.0279 0.637628 32.1286 0.613419 32.2293 0.585175L32.5313 0.512547C33.3409 0.318872 34.1625 0.169581 34.9962 0.0808134C35.83 0.000115585 36.6677 -0.0402333 37.5175 0.056604C37.731 0.0808134 37.9445 0.117127 38.1579 0.173616C38.2667 0.20186 38.3754 0.238174 38.4842 0.282558C38.5929 0.330976 38.7057 0.387465 38.8225 0.492372C38.8789 0.548861 38.9393 0.621489 38.9755 0.734465C38.9836 0.76271 38.9916 0.790954 38.9916 0.823233C38.9957 0.855512 38.9957 0.883756 38.9916 0.916036C38.9916 0.948315 38.9836 0.976559 38.9755 1.0048C38.9675 1.03305 38.9554 1.05726 38.9473 1.08147C38.899 1.1783 38.8426 1.23883 38.7862 1.29128C38.758 1.31549 38.7298 1.3397 38.7016 1.35987C38.6896 1.36794 38.6735 1.38005 38.6614 1.38812L38.6171 1.41233L38.5285 1.46075C38.5003 1.47689 38.4721 1.48495 38.4439 1.50109L38.3593 1.53741C38.3311 1.54951 38.3029 1.55758 38.2747 1.56565L38.1901 1.5939C38.1619 1.60197 38.1338 1.61004 38.1056 1.61407C38.0492 1.62618 37.9928 1.64232 37.9404 1.65442C37.7229 1.70284 37.5135 1.73108 37.3041 1.75933L36.6919 1.84003C36.2891 1.89651 35.8984 1.96511 35.5239 2.07405C35.1493 2.17896 34.7868 2.32421 34.4525 2.50578C34.1182 2.68735 33.8121 2.91734 33.5382 3.17961C33.2644 3.44188 33.0227 3.74046 32.8092 4.06325C32.5917 4.38201 32.4186 4.73708 32.2534 5.09215C32.1769 5.27372 32.0963 5.45529 32.0319 5.64493L31.9312 5.92737L31.8345 6.22191C31.7057 6.6133 31.5768 7.00468 31.4519 7.39607C31.2022 8.18287 30.9646 8.96967 30.735 9.76455L30.3886 10.9589L30.2154 11.556C30.155 11.7537 30.0946 11.9555 30.0342 12.1532C29.9093 12.5527 29.7764 12.9521 29.6113 13.3395C29.5267 13.5331 29.4301 13.7228 29.3173 13.9043C29.2045 14.0859 29.0676 14.2554 28.9105 14.3926L28.8541 14.3401C28.983 14.1828 29.0837 14.0052 29.1683 13.8236C29.2528 13.638 29.3173 13.4484 29.3737 13.2507C29.4341 13.057 29.4824 12.8553 29.5267 12.6576C29.571 12.4558 29.6153 12.2581 29.6556 12.0523L29.8973 10.8338C29.9778 10.4263 30.0584 10.0187 30.147 9.61122C30.3242 8.79617 30.5175 7.98516 30.735 7.18222C30.7874 6.98047 30.8438 6.77873 30.9001 6.58102C30.9606 6.37928 31.0169 6.18157 31.0774 5.97982L31.166 5.68124C31.1982 5.58037 31.2344 5.47546 31.2667 5.37459C31.3311 5.16881 31.4157 4.96706 31.4962 4.76532C31.5365 4.66445 31.5848 4.56761 31.6332 4.46674L31.7016 4.31745C31.7258 4.26903 31.754 4.22061 31.7782 4.17219C31.8305 4.07535 31.8829 3.97852 31.9393 3.88571C31.9997 3.79291 32.0561 3.70011 32.1165 3.60731C32.3662 3.24013 32.6522 2.89313 32.9824 2.59051C33.3127 2.2879 33.6873 2.02967 34.086 1.82389C34.4847 1.62214 34.9076 1.47285 35.3305 1.36794C35.7534 1.26304 36.1844 1.20251 36.6033 1.16216C36.8127 1.14199 37.0221 1.12585 37.2275 1.10568C37.4329 1.08954 37.6343 1.0734 37.8236 1.04515C38.0129 1.01691 38.1942 0.976559 38.3271 0.912001L38.3512 0.899896C38.3593 0.895861 38.3674 0.891826 38.3754 0.887791C38.3915 0.879721 38.4036 0.871652 38.4157 0.863582C38.4358 0.847442 38.4519 0.831303 38.4519 0.835338C38.4519 0.835338 38.4519 0.839373 38.4519 0.843407C38.4479 0.847442 38.4519 0.851477 38.4519 0.855512C38.4519 0.859547 38.4519 0.867617 38.4519 0.871652C38.4519 0.875687 38.456 0.879721 38.456 0.883756C38.464 0.895861 38.46 0.883756 38.4439 0.863582C38.4278 0.843407 38.3996 0.823233 38.3714 0.799024C38.3392 0.778849 38.3029 0.75464 38.2667 0.734465C38.1901 0.694117 38.1015 0.657803 38.0129 0.625523C37.8317 0.560965 37.6384 0.508512 37.445 0.468163C37.0544 0.3915 36.6476 0.343081 36.2408 0.326942C36.0354 0.318872 35.834 0.314837 35.6286 0.314837C35.4232 0.318872 35.2178 0.326942 35.0164 0.343081C34.1988 0.39957 33.3852 0.540791 32.5917 0.758675C32.193 0.867617 31.8023 0.992698 31.4197 1.13795C31.323 1.17427 31.2264 1.21058 31.1337 1.25093L30.9928 1.30742L30.8558 1.36794C30.7632 1.40829 30.6746 1.45268 30.582 1.49706C30.4933 1.54144 30.4047 1.58986 30.3161 1.64232C29.9698 1.84406 29.6395 2.07405 29.3294 2.32825C29.0192 2.58244 28.7212 2.85682 28.4393 3.14329C28.1573 3.42977 27.8834 3.72835 27.6217 4.03904C27.3599 4.34569 27.1061 4.66445 26.8604 4.98724C26.3731 5.63686 25.918 6.31875 25.491 7.01679C25.0641 7.71482 24.6614 8.43303 24.2747 9.16335C24.0814 9.52649 23.8961 9.89366 23.7108 10.2649C23.5256 10.6361 23.3443 11.0073 23.1711 11.3825L23.0986 11.3543Z" fill="#333333"/>
<path d="M20.0289 47.6643C20.0289 47.6643 19.9121 47.8822 20.1256 49.9763C20.339 52.0664 21.0801 55.2216 18.5347 58.4818C18.5347 58.4818 19.6664 56.4604 19.171 53.874C18.6756 51.2876 18.6958 49.6898 19.4409 48.0597C19.4369 48.0597 19.4288 47.5231 20.0289 47.6643Z" fill="#333333"/>
<path d="M18.9451 48.1074C18.9451 48.1074 19.0941 48.2325 18.8807 48.7651C18.5504 49.5882 17.9946 51.2103 18.1396 52.4853C18.2806 53.7603 18.9169 56.1369 18.2806 57.4482C18.2806 57.4482 18.1758 55.4267 17.6804 54.188C17.185 52.9493 16.9112 50.8996 18.2564 48.7005" fill="#333333"/>
<path d="M17.6126 48.9C17.6851 49.2914 17.6327 49.7312 17.3871 50.1912C17.1414 50.6512 16.501 52.0674 16.6782 53.4151C16.8554 54.7627 17.2783 55.8965 17.1374 56.0014C16.9964 56.1063 15.4417 53.294 15.6874 51.4178C15.9331 49.5416 16.9924 49.481 17.0286 48.9525C17.0649 48.4239 17.6126 48.9 17.6126 48.9Z" fill="#333333"/>
</svg>

