<svg width="45" height="24" viewBox="0 0 45 24" fill="none" xmlns="http://www.w3.org/2000/svg">
<path d="M41.8765 23.1708L22.498 4.28078L3.11951 23.1708C2.77328 23.5089 2.30849 23.6983 1.8245 23.6983C1.34052 23.6983 0.875733 23.5089 0.529502 23.1708C0.361859 23.0065 0.228675 22.8104 0.137754 22.5941C0.046832 22.3777 0 22.1454 0 21.9107C0 21.676 0.046832 21.4436 0.137754 21.2272C0.228675 21.0109 0.361859 20.8148 0.529502 20.6505L21.1449 0.550868C21.5069 0.197984 21.9925 0.000485652 22.498 0.000485652C23.0036 0.000485652 23.4891 0.197984 23.8512 0.550868L44.4665 20.6467C44.6354 20.811 44.7695 21.0076 44.8612 21.2247C44.9528 21.4418 45 21.675 45 21.9107C45 22.1463 44.9528 22.3795 44.8612 22.5966C44.7695 22.8137 44.6354 23.0103 44.4665 23.1746C44.1203 23.5128 43.6555 23.7021 43.1715 23.7021C42.6875 23.7021 42.2228 23.5128 41.8765 23.1746V23.1708Z" fill="#00FFB9"/>
</svg>
