<svg width="45" height="24" viewBox="0 0 45 24" fill="none" xmlns="http://www.w3.org/2000/svg">
<path d="M41.8765 0.531389L22.498 19.4214L3.11951 0.531389C2.77328 0.193206 2.30849 0.00387697 1.8245 0.00387697C1.34052 0.00387697 0.875733 0.193206 0.529502 0.531389C0.361859 0.695646 0.228675 0.891702 0.137754 1.10808C0.046832 1.32445 0 1.55679 0 1.7915C0 2.0262 0.046832 2.25854 0.137754 2.47491C0.228675 2.69129 0.361859 2.88735 0.529502 3.0516L21.1449 23.1513C21.5069 23.5042 21.9925 23.7017 22.498 23.7017C23.0036 23.7017 23.4891 23.5042 23.8512 23.1513L44.4665 3.05548C44.6354 2.8911 44.7695 2.69456 44.8612 2.47747C44.9528 2.26038 45 2.02713 45 1.7915C45 1.55586 44.9528 1.32261 44.8612 1.10552C44.7695 0.888427 44.6354 0.691891 44.4665 0.52751C44.1203 0.189327 43.6555 0 43.1715 0C42.6875 0 42.2228 0.189327 41.8765 0.52751V0.531389Z" fill="white"/>
</svg>
