<svg width="36" height="16" viewBox="0 0 36 16" fill="none" xmlns="http://www.w3.org/2000/svg">
<path d="M1 7C0.447715 7 4.82823e-08 7.44772 0 8C-4.82823e-08 8.55228 0.447715 9 1 9L1 7ZM35.7071 8.70711C36.0976 8.31659 36.0976 7.68342 35.7071 7.2929L29.3431 0.928935C28.9526 0.53841 28.3195 0.53841 27.9289 0.928935C27.5384 1.31946 27.5384 1.95262 27.9289 2.34315L33.5858 8L27.9289 13.6569C27.5384 14.0474 27.5384 14.6805 27.9289 15.0711C28.3195 15.4616 28.9526 15.4616 29.3431 15.0711L35.7071 8.70711ZM1 9L35 9L35 7L1 7L1 9Z" fill="#00FFB9"/>
</svg>
