<svg width="33" height="29" viewBox="0 0 33 29" fill="none" xmlns="http://www.w3.org/2000/svg">
<path d="M29.0006 29C29.8551 29 30.6747 28.6605 31.279 28.0562C31.8833 27.452 32.2228 26.6324 32.2228 25.7778V17.9091C32.2228 17.0545 31.8833 16.2349 31.279 15.6307C30.6747 15.0264 29.8551 14.6869 29.0006 14.6869H24.5281C24.5281 13.5559 24.5958 12.4217 24.7279 11.2907C24.9277 10.092 25.2628 9.02544 25.7268 8.09422C26.194 7.15978 26.7933 6.42833 27.528 5.89344C28.2594 5.29411 29.1907 4.99445 30.3249 4.99445V0C28.4592 0 26.8288 0.399556 25.4271 1.19867C24.0376 1.98968 22.843 3.0819 21.931 4.39511C21.0156 5.8429 20.341 7.42947 19.9332 9.09311C19.5223 10.929 19.3213 12.8056 19.3339 14.6869V25.7778C19.3339 26.6324 19.6734 27.452 20.2777 28.0562C20.8819 28.6605 21.7015 29 22.5561 29H29.0006ZM9.66723 29C10.5218 29 11.3414 28.6605 11.9457 28.0562C12.55 27.452 12.8894 26.6324 12.8894 25.7778V17.9091C12.8894 17.0545 12.55 16.2349 11.9457 15.6307C11.3414 15.0264 10.5218 14.6869 9.66723 14.6869H5.19478C5.19478 13.5559 5.26245 12.4217 5.39456 11.2907C5.59434 10.092 5.92945 9.02544 6.39345 8.09422C6.86067 7.15978 7.46 6.42833 8.19467 5.89344C8.92612 5.29411 9.85734 4.99445 10.9916 4.99445V0C9.12589 0 7.49545 0.399556 6.09378 1.19867C4.70431 1.98968 3.5097 3.0819 2.59767 4.39511C1.68232 5.8429 1.00765 7.42947 0.599892 9.09311C0.189013 10.929 -0.012053 12.8056 0.000558341 14.6869V25.7778C0.000558341 26.6324 0.340041 27.452 0.944325 28.0562C1.54861 28.6605 2.36819 29 3.22278 29H9.66723Z" fill="white"/>
</svg>
