<svg width="28" height="19" viewBox="0 0 28 19" fill="none" xmlns="http://www.w3.org/2000/svg">
<path d="M27.1429 17.6496C27.1429 18.3961 26.5376 19 25.7925 19H14.9218C14.5636 19 14.2202 18.8577 13.9669 18.6045C13.7137 18.3512 13.5714 18.0078 13.5714 17.6496C13.5714 17.2915 13.7137 16.948 13.9669 16.6948C14.2202 16.4416 14.5636 16.2993 14.9218 16.2993H25.7925C26.5389 16.2993 27.1429 16.9032 27.1429 17.6496V17.6496ZM27.1429 9.5C27.1429 10.2464 26.5376 10.8504 25.7925 10.8504H1.35036C0.99222 10.8504 0.648752 10.7081 0.395511 10.4548C0.142269 10.2016 0 9.85814 0 9.5C0 9.14186 0.142269 8.79839 0.395511 8.54515C0.648752 8.29191 0.99222 8.14964 1.35036 8.14964H25.7925C26.5389 8.14964 27.1429 8.75493 27.1429 9.5V9.5ZM25.7925 2.70071C26.1506 2.70071 26.4941 2.55844 26.7473 2.3052C27.0006 2.05196 27.1429 1.70849 27.1429 1.35036C27.1429 0.99222 27.0006 0.648751 26.7473 0.39551C26.4941 0.142269 26.1506 1.06733e-08 25.7925 0H9.49321C9.31588 -5.28489e-09 9.14029 0.034928 8.97645 0.10279C8.81262 0.170652 8.66376 0.270118 8.53837 0.39551C8.41297 0.520902 8.31351 0.669765 8.24565 0.833598C8.17778 0.997431 8.14286 1.17303 8.14286 1.35036C8.14286 1.52769 8.17778 1.70328 8.24565 1.86712C8.31351 2.03095 8.41297 2.17981 8.53837 2.3052C8.66376 2.4306 8.81262 2.53006 8.97645 2.59792C9.14029 2.66579 9.31588 2.70071 9.49321 2.70071H25.7925Z" fill="white"/>
</svg>
