<svg width="17" height="15" viewBox="0 0 17 15" fill="none" xmlns="http://www.w3.org/2000/svg">
<path d="M16.9179 13.9635L9.02553 0.303554C8.9079 0.100552 8.7049 0 8.5 0C8.2951 0 8.0902 0.100552 7.97447 0.303554L0.082061 13.9635C-0.151296 14.3695 0.140875 14.8742 0.607589 14.8742H16.3924C16.8591 14.8742 17.1513 14.3695 16.9179 13.9635ZM7.89289 5.61575C7.89289 5.53228 7.96119 5.46398 8.04467 5.46398H8.95533C9.03881 5.46398 9.10711 5.53228 9.10711 5.61575V9.10663C9.10711 9.19011 9.03881 9.25841 8.95533 9.25841H8.04467C7.96119 9.25841 7.89289 9.19011 7.89289 9.10663V5.61575ZM8.5 12.2939C8.2617 12.2891 8.03479 12.191 7.86798 12.0207C7.70117 11.8505 7.60774 11.6216 7.60774 11.3833C7.60774 11.1449 7.70117 10.9161 7.86798 10.7458C8.03479 10.5756 8.2617 10.4775 8.5 10.4726C8.7383 10.4775 8.96521 10.5756 9.13202 10.7458C9.29883 10.9161 9.39226 11.1449 9.39226 11.3833C9.39226 11.6216 9.29883 11.8505 9.13202 12.0207C8.96521 12.191 8.7383 12.2891 8.5 12.2939V12.2939Z" fill="#FFA34F"/>
</svg>
