<svg width="133" height="36" viewBox="0 0 133 36" fill="none" xmlns="http://www.w3.org/2000/svg">
<path opacity="0.92" fill-rule="evenodd" clip-rule="evenodd" d="M55.0919 29.7672H55.0324C55.0592 29.7672 55.077 29.7965 55.1038 29.7994H55.1216L55.0919 29.7701V29.7672ZM55.1038 29.7994C54.8273 29.8024 54.1316 29.9459 53.3972 29.9459C51.0782 29.9459 50.2754 28.8911 50.2754 27.514V18.3401H55.0027C55.2703 18.3401 55.4784 18.1057 55.4784 17.7834V12.8024C55.4784 12.5387 55.2405 12.3043 55.0027 12.3043H50.2754V6.12195C50.2754 5.88755 50.1268 5.74105 49.8592 5.74105H43.4373C43.1697 5.74105 43.021 5.88755 43.021 6.12195V12.4801C43.021 12.4801 39.7803 13.2712 39.5722 13.3005C39.3344 13.3591 39.1857 13.5642 39.1857 13.7986V17.7834C39.1857 18.1057 39.4236 18.3401 39.6911 18.3401H42.9913V27.9506C42.9913 35.0998 48.0456 35.8324 51.4944 35.8324C53.0702 35.8324 54.973 35.3343 55.2703 35.1877C55.4487 35.1292 55.5379 34.924 55.5379 34.7189V30.3239C55.542 30.1993 55.5003 30.0773 55.4206 29.9805C55.3409 29.8836 55.2284 29.8183 55.1038 29.7965V29.7994ZM125.555 23.3505C125.555 18.0471 123.384 17.3439 121.095 17.5783C119.311 17.6955 117.884 18.5745 117.884 18.5745V28.8882C117.884 28.8882 119.341 29.8844 121.511 29.943C124.574 30.0309 125.555 28.9468 125.555 23.3505ZM132.779 22.8817C132.779 32.9316 129.479 35.8031 123.711 35.8031C118.836 35.8031 116.219 33.3711 116.219 33.3711C116.219 33.3711 116.1 34.7189 115.952 34.8947C115.862 35.0705 115.714 35.1291 115.535 35.1291H111.135C110.838 35.1291 110.57 34.8947 110.57 34.631L110.63 2.07852C110.63 1.81482 110.868 1.58042 111.135 1.58042H117.468C117.735 1.58042 117.973 1.81482 117.973 2.07852V13.1247C117.973 13.1247 120.411 11.5718 123.979 11.5718L123.949 11.5132C127.517 11.5132 132.779 12.8317 132.779 22.8817ZM106.854 12.3043H100.61C100.283 12.3043 100.105 12.5387 100.105 12.861V28.8003C100.105 28.8003 98.4697 29.943 96.2399 29.943C94.01 29.943 93.3559 28.9468 93.3559 26.7493V12.8317C93.3559 12.568 93.1181 12.3336 92.8505 12.3336H86.488C86.2204 12.3336 85.9826 12.568 85.9826 12.8317V27.8041C85.9826 34.2501 89.6395 35.8617 94.6641 35.8617C98.7967 35.8617 102.156 33.6055 102.156 33.6055C102.156 33.6055 102.305 34.7482 102.394 34.924C102.454 35.0705 102.662 35.1877 102.87 35.1877H106.854C107.181 35.1877 107.359 34.9533 107.359 34.6896L107.419 12.8024C107.419 12.5387 107.181 12.3043 106.854 12.3043ZM36.391 12.275H30.0582C29.7906 12.275 29.5528 12.5387 29.5528 12.861V34.3673C29.5528 34.9534 29.9393 35.1584 30.4447 35.1584H36.1531C36.7477 35.1584 36.8964 34.8947 36.8964 34.3673V12.7731C36.8964 12.5094 36.6586 12.275 36.391 12.275ZM33.2692 2.37152C30.9799 2.37152 29.1663 4.15884 29.1663 6.41495C29.1663 8.67107 30.9799 10.4584 33.2692 10.4584C35.499 10.4584 37.3126 8.67107 37.3126 6.41495C37.3126 4.15884 35.499 2.37152 33.2692 2.37152ZM82.2959 1.63902H76.0226C75.7551 1.63902 75.5172 1.87342 75.5172 2.13712V14.1209H65.6762V2.13712C65.6762 1.87342 65.4383 1.63902 65.1708 1.63902H58.838C58.5704 1.63902 58.3326 1.87342 58.3326 2.13712V34.6896C58.3326 34.9533 58.6002 35.1877 58.838 35.1877H65.1708C65.4383 35.1877 65.6762 34.9533 65.6762 34.6896V20.7721H75.5172L75.4577 34.6896C75.4577 34.9533 75.6956 35.1877 75.9632 35.1877H82.2959C82.5635 35.1877 82.8014 34.9533 82.8014 34.6896V2.13712C82.8014 1.87342 82.5635 1.63902 82.2959 1.63902ZM26.1932 16.0547V32.873C26.1932 32.9902 26.1634 33.1953 26.0148 33.2539C26.0148 33.2539 22.2984 35.8617 16.1738 35.8617C8.7707 35.8617 0 33.5762 0 18.5159C0 3.45563 7.67065 0.349811 15.1629 0.379111C21.6443 0.379111 24.2607 1.81482 24.6769 2.07852C24.7958 2.22502 24.8553 2.34222 24.8553 2.48873L23.6066 7.70416C23.6066 7.96786 23.339 8.29017 23.0119 8.20226C21.9416 7.87996 20.3361 7.23536 16.5603 7.23536C12.1898 7.23536 7.49226 8.46597 7.49226 18.1643C7.49226 27.8627 11.9519 29.0054 15.1629 29.0054C17.8982 29.0054 18.8793 28.6831 18.8793 28.6831V21.9441H14.5088C14.1818 21.9441 13.9439 21.7097 13.9439 21.446V16.0547C13.9439 15.791 14.1818 15.5566 14.5088 15.5566H25.6283C25.9553 15.5566 26.1932 15.791 26.1932 16.0547Z" fill="white"/>
</svg>